<?xml version="1.0" standalone="no"?><!DOCTYPE svg PUBLIC "-//W3C//DTD SVG 1.1//EN" "http://www.w3.org/Graphics/SVG/1.1/DTD/svg11.dtd"><svg t="1528354736157" class="icon" style="" viewBox="0 0 1024 1024" version="1.1" xmlns="http://www.w3.org/2000/svg" p-id="2225" xmlns:xlink="http://www.w3.org/1999/xlink" width="200" height="200"><defs><style type="text/css"></style></defs><path d="M511.936 559.104l169.664 169.664a31.968 31.968 0 0 0 22.72 9.28 32 32 0 0 0 22.4-54.4l-169.664-169.664 169.664-169.664a32 32 0 1 0-45.12-45.12l-169.664 169.664-169.344-169.344a32 32 0 0 0-45.12 45.12l169.344 169.344-169.344 169.344a32 32 0 0 0 22.752 54.752c8.448-0.128 16.512-3.584 22.4-9.6l169.312-169.376z" p-id="2226" fill="#666666"></path></svg>