<?xml version="1.0" standalone="no"?><!DOCTYPE svg PUBLIC "-//W3C//DTD SVG 1.1//EN" "http://www.w3.org/Graphics/SVG/1.1/DTD/svg11.dtd"><svg t="1523589313174" class="icon" style="" viewBox="0 0 1024 1024" version="1.1" xmlns="http://www.w3.org/2000/svg" p-id="5511" xmlns:xlink="http://www.w3.org/1999/xlink" width="200" height="200"><defs><style type="text/css"></style></defs><path d="M511.999488 63.645552c-246.99951 0-447.230857 200.231347-447.230857 447.230857 0 246.998487 200.23237 447.231881 447.230857 447.231881 246.99951 0 447.229834-200.233394 447.229834-447.231881C959.229323 263.876899 758.998999 63.645552 511.999488 63.645552zM309.68776 579.89432c-38.145785 0-69.070098-30.924313-69.070098-69.070098s30.92329-69.070098 69.070098-69.070098 69.070098 30.92329 69.070098 69.070098S347.834568 579.89432 309.68776 579.89432zM515.868609 579.89432c-38.145785 0-69.070098-30.924313-69.070098-69.070098s30.92329-69.070098 69.070098-69.070098 69.070098 30.92329 69.070098 69.070098S554.014394 579.89432 515.868609 579.89432zM720.007963 579.89432c-38.145785 0-69.070098-30.924313-69.070098-69.070098s30.924313-69.070098 69.070098-69.070098 69.070098 30.92329 69.070098 69.070098S758.154771 579.89432 720.007963 579.89432z" p-id="5512" fill="#fe68c1"></path></svg>