<?xml version="1.0" standalone="no"?><!DOCTYPE svg PUBLIC "-//W3C//DTD SVG 1.1//EN" "http://www.w3.org/Graphics/SVG/1.1/DTD/svg11.dtd"><svg t="1517825444152" class="icon" style="" viewBox="0 0 1024 1024" version="1.1" xmlns="http://www.w3.org/2000/svg" p-id="10565" xmlns:xlink="http://www.w3.org/1999/xlink" width="200" height="200"><defs><style type="text/css"></style></defs><path d="M930.133333 1024h-836.266666A94.037333 94.037333 0 0 1 0 930.133333v-836.266666A94.037333 94.037333 0 0 1 93.866667 0h836.266666A94.037333 94.037333 0 0 1 1024 93.866667v836.266666a94.037333 94.037333 0 0 1-93.866667 93.866667zM93.866667 17.066667A76.8 76.8 0 0 0 17.066667 93.866667v836.266666A76.8 76.8 0 0 0 93.866667 1006.933333h836.266666a76.8 76.8 0 0 0 76.8-76.8v-836.266666A76.8 76.8 0 0 0 930.133333 17.066667z" fill="#DEDFE0" p-id="10566"></path><path d="M1024 682.666667H0V341.333333h1024zM17.066667 665.6h989.866666V358.4H17.066667z" fill="#DEDFE0" p-id="10567"></path><path d="M162.133333 166.4m-17.066666 0a17.066667 17.066667 0 1 0 34.133333 0 17.066667 17.066667 0 1 0-34.133333 0Z" fill="#D8D8D8" p-id="10568"></path><path d="M281.6 166.4m-17.066667 0a17.066667 17.066667 0 1 0 34.133334 0 17.066667 17.066667 0 1 0-34.133334 0Z" fill="#D8D8D8" p-id="10569"></path><path d="M401.066667 166.4m-17.066667 0a17.066667 17.066667 0 1 0 34.133333 0 17.066667 17.066667 0 1 0-34.133333 0Z" fill="#D8D8D8" p-id="10570"></path><path d="M593.066667 153.6h281.6a12.8 12.8 0 0 1 12.8 12.8 12.8 12.8 0 0 1-12.8 12.8h-281.6a12.8 12.8 0 0 1-12.8-12.8 12.8 12.8 0 0 1 12.8-12.8z" fill="#D8D8D8" p-id="10571"></path><path d="M162.133333 524.8m-17.066666 0a17.066667 17.066667 0 1 0 34.133333 0 17.066667 17.066667 0 1 0-34.133333 0Z" fill="#D8D8D8" p-id="10572"></path><path d="M281.6 524.8m-17.066667 0a17.066667 17.066667 0 1 0 34.133334 0 17.066667 17.066667 0 1 0-34.133334 0Z" fill="#D8D8D8" p-id="10573"></path><path d="M401.066667 524.8m-17.066667 0a17.066667 17.066667 0 1 0 34.133333 0 17.066667 17.066667 0 1 0-34.133333 0Z" fill="#D8D8D8" p-id="10574"></path><path d="M593.066667 512h281.6a12.8 12.8 0 0 1 12.8 12.8 12.8 12.8 0 0 1-12.8 12.8h-281.6a12.8 12.8 0 0 1-12.8-12.8 12.8 12.8 0 0 1 12.8-12.8z" fill="#D8D8D8" p-id="10575"></path><path d="M162.133333 849.066667m-17.066666 0a17.066667 17.066667 0 1 0 34.133333 0 17.066667 17.066667 0 1 0-34.133333 0Z" fill="#D8D8D8" p-id="10576"></path><path d="M281.6 849.066667m-17.066667 0a17.066667 17.066667 0 1 0 34.133334 0 17.066667 17.066667 0 1 0-34.133334 0Z" fill="#D8D8D8" p-id="10577"></path><path d="M401.066667 849.066667m-17.066667 0a17.066667 17.066667 0 1 0 34.133333 0 17.066667 17.066667 0 1 0-34.133333 0Z" fill="#D8D8D8" p-id="10578"></path><path d="M593.066667 836.266667h281.6a12.8 12.8 0 0 1 12.8 12.8 12.8 12.8 0 0 1-12.8 12.8h-281.6a12.8 12.8 0 0 1-12.8-12.8 12.8 12.8 0 0 1 12.8-12.8z" fill="#D8D8D8" p-id="10579"></path></svg>