<?xml version="1.0" standalone="no"?><!DOCTYPE svg PUBLIC "-//W3C//DTD SVG 1.1//EN" "http://www.w3.org/Graphics/SVG/1.1/DTD/svg11.dtd"><svg t="1517825457634" class="icon" style="" viewBox="0 0 1024 1024" version="1.1" xmlns="http://www.w3.org/2000/svg" p-id="10701" xmlns:xlink="http://www.w3.org/1999/xlink" width="200" height="200"><defs><style type="text/css"></style></defs><path d="M912.457143 1020.342857H111.542857C53.028571 1020.342857 5.485714 972.8 5.485714 914.285714c0-16.457143 3.657143-32.914286 10.971429-47.542857l402.285714-800.914286c25.6-51.2 89.6-73.142857 140.8-47.542857 20.114286 10.971429 36.571429 27.428571 47.542857 47.542857l400.457143 800.914286c12.8 25.6 14.628571 53.028571 5.485714 80.457143-9.142857 27.428571-27.428571 47.542857-53.028571 60.342857-14.628571 7.314286-31.085714 12.8-47.542857 12.8zM512 34.742857c-29.257143 0-56.685714 16.457143-69.485714 42.057143L42.057143 879.542857c-5.485714 10.971429-9.142857 21.942857-9.142857 34.742857 0 42.057143 34.742857 76.8 76.8 76.8h800.914285c12.8 0 23.771429-3.657143 34.742858-7.314285 18.285714-9.142857 32.914286-25.6 38.4-45.714286 7.314286-20.114286 5.485714-40.228571-3.657143-58.514286L581.485714 78.628571c-7.314286-14.628571-20.114286-27.428571-34.742857-34.742857-10.971429-5.485714-23.771429-9.142857-34.742857-9.142857z" fill="#DEDFE0" p-id="10702"></path><path d="M493.714286 402.285714h25.6c5.485714 0 9.142857 3.657143 9.142857 9.142857l-10.971429 279.771429c0 5.485714-3.657143 9.142857-9.142857 9.142857h-9.142857c-5.485714 0-9.142857-3.657143-9.142857-9.142857l-7.314286-279.771429c1.828571-5.485714 5.485714-9.142857 10.971429-9.142857z m10.971428 347.428572c7.314286 0 14.628571 1.828571 20.114286 7.314285 5.485714 5.485714 9.142857 12.8 9.142857 20.114286 0 7.314286-3.657143 14.628571-9.142857 20.114286-5.485714 5.485714-12.8 7.314286-20.114286 7.314286-9.142857 0-16.457143-3.657143-20.114285-9.142858-5.485714-1.828571-9.142857-9.142857-9.142858-16.457142 0-9.142857 3.657143-16.457143 9.142858-20.114286 5.485714-7.314286 10.971429-9.142857 20.114285-9.142857z" fill="#DEDFE0" p-id="10703"></path></svg>