<?xml version="1.0" standalone="no"?><!DOCTYPE svg PUBLIC "-//W3C//DTD SVG 1.1//EN" "http://www.w3.org/Graphics/SVG/1.1/DTD/svg11.dtd"><svg t="1523523265605" class="icon" style="" viewBox="0 0 1024 1024" version="1.1" xmlns="http://www.w3.org/2000/svg" p-id="22025" xmlns:xlink="http://www.w3.org/1999/xlink" width="200" height="200"><defs><style type="text/css"></style></defs><path d="M460.8 797.866667c-81.066667 0-162.133333-29.866667-226.133333-93.866667-59.733333-59.733333-93.866667-140.8-93.866667-226.133333s34.133333-166.4 93.866667-226.133334C358.4 128 563.2 128 686.933333 251.733333c123.733333 123.733333 123.733333 328.533333 0 452.266667-59.733333 59.733333-145.066667 93.866667-226.133333 93.866667z m0-597.333334c-72.533333 0-140.8 25.6-196.266667 81.066667a273.92 273.92 0 0 0-81.066666 196.266667c0 72.533333 29.866667 145.066667 81.066666 196.266666 106.666667 106.666667 285.866667 106.666667 392.533334 0 106.666667-106.666667 106.666667-285.866667 0-392.533333-51.2-55.466667-123.733333-81.066667-196.266667-81.066667z" fill="#666666" p-id="22026"></path><path d="M861.866667 866.133333c-4.266667 0-12.8 0-17.066667-4.266666l-170.666667-170.666667c-8.533333-8.533333-8.533333-21.333333 0-29.866667s21.333333-8.533333 29.866667 0l170.666667 170.666667c8.533333 8.533333 8.533333 21.333333 0 29.866667-4.266667 4.266667-8.533333 4.266667-12.8 4.266666z" fill="#787878" p-id="22027"></path></svg>