<?xml version="1.0" standalone="no"?><!DOCTYPE svg PUBLIC "-//W3C//DTD SVG 1.1//EN" "http://www.w3.org/Graphics/SVG/1.1/DTD/svg11.dtd"><svg t="1528356312520" class="icon" style="" viewBox="0 0 1024 1024" version="1.1" xmlns="http://www.w3.org/2000/svg" p-id="10739" xmlns:xlink="http://www.w3.org/1999/xlink" width="200" height="200"><defs><style type="text/css"></style></defs><path d="M460.8 825.6l102.4 0 0 32L460.8 857.6 460.8 825.6zM729.6 64 294.4 64C268.8 64 243.2 83.2 243.2 108.8l0 806.4c0 25.6 19.2 44.8 44.8 44.8l441.6 0c25.6 0 44.8-19.2 44.8-44.8L774.4 108.8C780.8 83.2 755.2 64 729.6 64zM742.4 915.2c0 6.4-6.4 12.8-12.8 12.8L294.4 928c-6.4 0-12.8-6.4-12.8-12.8l0-153.6 467.2 0L748.8 915.2zM742.4 729.6 281.6 729.6 281.6 198.4l467.2 0L748.8 729.6zM742.4 166.4 281.6 166.4 281.6 108.8c0-6.4 6.4-12.8 12.8-12.8l441.6 0c6.4 0 12.8 6.4 12.8 12.8L748.8 166.4z" p-id="10740" fill="#ada9a9"></path></svg>