<?xml version="1.0" standalone="no"?><!DOCTYPE svg PUBLIC "-//W3C//DTD SVG 1.1//EN" "http://www.w3.org/Graphics/SVG/1.1/DTD/svg11.dtd"><svg t="1528354848254" class="icon" style="" viewBox="0 0 1024 1024" version="1.1" xmlns="http://www.w3.org/2000/svg" p-id="3490" xmlns:xlink="http://www.w3.org/1999/xlink" width="200" height="200"><defs><style type="text/css"></style></defs><path d="M691.230034 363.055736c4.50664 0 8.985652 0.100284 13.443174 0.267083-28.387537-129.98547-162.365948-228.411153-323.384202-228.411153-181.674713 0-328.949964 125.291564-328.949964 279.844569 0 90.298586 50.28629 170.592306 128.319527 221.76171l-32.865525 96.941889 108.828614-59.677171c38.45073 13.407358 80.538291 20.818141 124.666324 20.818141 8.506744 0 16.937764-0.274246 25.28078-0.814552-9.205663-24.38027-14.193257-50.360991-14.193257-77.331249C392.377552 476.507648 526.177907 363.055736 691.230034 363.055736zM494.810502 273.250384c26.828019 0 48.577369 21.748327 48.577369 48.577369 0 26.828019-21.748327 48.577369-48.577369 48.577369s-48.577369-21.748327-48.577369-48.577369C446.234157 294.998711 467.982484 273.250384 494.810502 273.250384zM268.822538 370.404098c-26.828019 0-48.577369-21.748327-48.577369-48.577369 0-26.828019 21.748327-48.577369 48.577369-48.577369s48.577369 21.748327 48.577369 48.577369C317.399907 348.654748 295.65158 370.404098 268.822538 370.404098z" p-id="3491" fill="#00d10c"></path><path d="M968.963523 616.456027c0-130.059148-124.345006-235.492432-277.733489-235.492432S413.497569 486.396879 413.497569 616.456027s124.345006 235.492432 277.733489 235.492432c32.206516 0 63.123666-4.66423 91.88778-13.211906l94.959745 52.070936-27.598568-81.407078C922.118612 766.810407 968.963523 696.275957 968.963523 616.456027zM604.457762 582.663386c-21.48022 0-38.892799-17.412578-38.892799-38.892799 0-21.48022 17.412578-38.892799 38.892799-38.892799 21.48022 0 38.892799 17.412578 38.892799 38.892799C643.35056 565.250808 625.937982 582.663386 604.457762 582.663386zM785.395694 582.663386c-21.48022 0-38.892799-17.412578-38.892799-38.892799 0-21.48022 17.412578-38.892799 38.892799-38.892799 21.48022 0 38.892799 17.412578 38.892799 38.892799C824.288492 565.250808 806.874891 582.663386 785.395694 582.663386z" p-id="3492" fill="#00d10c"></path></svg>