<?xml version="1.0" standalone="no"?><!DOCTYPE svg PUBLIC "-//W3C//DTD SVG 1.1//EN" "http://www.w3.org/Graphics/SVG/1.1/DTD/svg11.dtd"><svg t="1528280099198" class="icon" style="" viewBox="0 0 1024 1024" version="1.1" xmlns="http://www.w3.org/2000/svg" p-id="5028" xmlns:xlink="http://www.w3.org/1999/xlink" width="200" height="200"><defs><style type="text/css"></style></defs><path d="M510.545882 31.907711c-264.333294 0-478.616682 214.284411-478.616682 478.617705s214.284411 478.617705 478.616682 478.617705 478.617705-214.284411 478.617705-478.617705S774.879176 31.907711 510.545882 31.907711zM576.154135 764.181533c0 41.966811-22.901593 57.369615-32.747845 62.043055-4.432962 2.104941-12.224416 4.883217-22.416546 4.883217-12.44852 0.001023-28.479635-4.14439-46.358841-18.733667L340.620771 703.027731 223.7459 703.027731c-52.782134 0-95.723132-42.940998-95.723132-95.723132L128.022769 415.173744c0-52.782134 42.940998-95.723132 95.723132-95.723132l70.935586 0c17.622356 0 31.907711 14.285355 31.907711 31.907711s-14.285355 31.907711-31.907711 31.907711l-70.935586 0c-17.593703 0-31.907711 14.314007-31.907711 31.907711L191.83819 607.304599c0 17.593703 14.314007 31.907711 31.907711 31.907711l138.605801 0 9.815553 7.192819 140.17146 114.374934L512.338714 264.742617l-105.942891 93.397157c-13.220093 11.653411-33.383318 10.382465-45.035706-2.834558-11.653411-13.219069-10.384511-33.382295 2.834558-45.035706l111.080911-97.92631c31.770588-28.009937 58.165748-20.662599 68.039629-16.204054 9.873882 4.457522 32.838919 19.399839 32.838919 61.754482L576.154135 764.181533zM671.620417 678.171624c-8.198729 0-16.392342-3.137457-22.62837-9.410324-12.424984-12.496615-12.365632-32.69975 0.130983-45.124733 29.158087-28.989241 45.348837-78.016865 42.256406-127.949091-2.472308-39.901779-16.793478-72.77549-39.290865-90.192162-13.934361-10.787694-16.486486-30.828123-5.698792-44.763506 10.787694-13.933337 30.828123-16.486486 44.762483-5.698792 37.016055 28.65462 60.313667 78.482469 63.920822 136.708592 1.981121 31.969109-2.110057 64.715931-11.82942 94.697779-10.516518 32.443923-27.505447 60.95528-49.126884 82.452897C687.893033 675.079192 679.753655 678.171624 671.620417 678.171624zM765.898641 752.460584c-6.04467 5.26491-13.511735 7.847735-20.944008 7.847735-8.906857 0-17.764596-3.707438-24.074302-10.951423-11.573593-13.288654-10.18292-33.444716 3.104711-45.017286 65.169255-56.759725 99.208513-135.821385 93.393064-216.911238-4.883217-68.087725-37.594223-126.448924-89.743954-160.120814-14.804171-9.558703-19.056008-29.309536-9.497305-44.113707 9.55768-14.805194 29.308513-19.057031 44.113707-9.498328 35.085076 22.653953 63.403029 53.142337 84.166935 90.617857 19.620873 35.412534 31.589462 76.406181 34.612309 118.549 3.423983 47.729048-4.536316 96.863095-23.019273 142.091182C838.106196 673.66396 807.113321 716.563002 765.898641 752.460584z" p-id="5029" fill="#fc3745"></path></svg>