<?xml version="1.0" standalone="no"?><!DOCTYPE svg PUBLIC "-//W3C//DTD SVG 1.1//EN" "http://www.w3.org/Graphics/SVG/1.1/DTD/svg11.dtd"><svg t="1523589627462" class="icon" style="" viewBox="0 0 1024 1024" version="1.1" xmlns="http://www.w3.org/2000/svg" p-id="12405" xmlns:xlink="http://www.w3.org/1999/xlink" width="200" height="200"><defs><style type="text/css"></style></defs><path d="M849.733 788.762c-15.542-74.123-46.625-135.094-111.183-167.373 11.955-20.324 17.933-44.234 17.933-70.536v-224.757c0-102.815-100.423-148.244-187.696-133.897 14.347 11.955 25.106 26.302 33.474 43.039 57.384 1.195 113.574 31.084 113.574 89.663v224.757c0 46.625-35.866 75.318-78.904 86.078 65.753 64.558 82.491 163.786 88.468 257.036 47.821-26.302 89.663-62.167 124.334-104.010zM308.164 558.027v-231.93c22.715 22.715 65.753 39.452 115.965 39.452s93.25-16.737 115.965-39.452v231.93c0 120.747-231.93 120.747-231.93 0zM267.517 314.142v245.081c0 26.302 5.977 50.212 17.932 71.731-63.363 31.084-94.446 89.663-109.987 159.004 80.1 96.837 200.847 159.004 337.135 159.004 60.971 0 120.747-13.15 173.35-37.061-4.782-121.942-26.302-233.125-123.138-280.946 11.955-21.519 19.128-45.429 19.128-71.731v-245.081c0-181.718-314.421-181.718-314.421 0zM32 512.598c0-265.404 215.193-480.598 480.598-480.598 264.209 0 479.402 215.193 479.402 480.598 0 264.209-215.193 479.402-479.402 479.402-265.404 0-480.598-215.193-480.598-479.402z" p-id="12406" fill="#fecf5b"></path></svg>