<?xml version="1.0" standalone="no"?><!DOCTYPE svg PUBLIC "-//W3C//DTD SVG 1.1//EN" "http://www.w3.org/Graphics/SVG/1.1/DTD/svg11.dtd"><svg t="1524466173714" class="icon" style="" viewBox="0 0 1127 1024" version="1.1" xmlns="http://www.w3.org/2000/svg" p-id="5083" xmlns:xlink="http://www.w3.org/1999/xlink" width="220.1171875" height="200"><defs><style type="text/css"></style></defs><path d="M102.4 0l921.6 0 0 51.2-921.6 0 0-51.2Z" p-id="5084" fill="#DEDFE0"></path><path d="M51.2 102.4l1024 0 0 51.2-1024 0 0-51.2Z" p-id="5085" fill="#DEDFE0"></path><path d="M0 211.4048l0 805.9904C0 1021.0304 3.2256 1024 7.168 1024l1112.0128 0c3.9936 0 7.168-2.9696 7.168-6.6048L1126.3488 211.4048C1126.4 207.7696 1123.1744 204.8 1119.1808 204.8L7.168 204.8C3.2256 204.8 0 207.7696 0 211.4048zM51.2 256l1024 0 0 716.8L51.2 972.8 51.2 256z" p-id="5086" fill="#DEDFE0"></path></svg>