<?xml version="1.0" standalone="no"?><!DOCTYPE svg PUBLIC "-//W3C//DTD SVG 1.1//EN" "http://www.w3.org/Graphics/SVG/1.1/DTD/svg11.dtd"><svg t="1523589470736" class="icon" style="" viewBox="0 0 1025 1024" version="1.1" xmlns="http://www.w3.org/2000/svg" p-id="9776" xmlns:xlink="http://www.w3.org/1999/xlink" width="200.1953125" height="200"><defs><style type="text/css"></style></defs><path d="M512.016875 0C229.23403 0 0 229.23403 0 512.016875 0 794.77597 229.23403 1024 512.016875 1024c282.764095 0 511.998125-229.22403 511.998125-511.983125C1024.01 229.23403 794.78097 0 512.016875 0zM739.580903 544.248164c-0.02875 34.443792-7.568759 67.002582-20.747525 96.386368l0.185 0.0975c-1.557502 3.458754-3.320004 6.806258-5.015006 10.156262-0.820001 1.596252-1.542502 3.256254-2.407503 4.860006-2.948754 5.473757-6.137507 10.775013-9.492512 15.946269-1.557502 2.412503-3.207504 4.721256-4.853756 7.076259-2.051253 2.893754-4.121255 5.755007-6.283758 8.55376-2.036252 2.647503-4.077505 5.235006-6.211258 7.78751-1.767502 2.110003-3.657504 4.132505-5.502507 6.167508-5.635007 6.201258-11.518764 12.153765-17.773772 17.725022l-0.937501 0.860001c-3.686254 3.260004-7.525009 6.322508-11.426264 9.340011-0.650001 0.488751-1.283752 1.001251-1.948752 1.480002-28.852535 21.826277-62.915077 36.777545-99.995122 42.656302-1.352502 0.19-2.676253 0.420001-4.033755 0.620001-4.477505 0.620001-8.960011 1.152501-13.535017 1.513752-1.900002 0.12375-3.828755 0.1675-5.756257 0.28-3.935005 0.21875-7.83751 0.625001-11.826264 0.625001-87.748857 0-163.78895-50.772562-201.757746-125.005153-16.49877-32.091289-25.947532-68.512584-25.947532-107.193881 0-36.113794 8.36501-70.171336 22.871278-100.673873 36.767545-77.740095 114.56014-131.523911 204.834-131.523911 125.693903 0 227.587778 103.955127 227.559028 232.241533L739.578403 544.248164zM822.242254 578.643206c0 15.537519-12.207515 28.178784-27.202533 28.178784l-16.47502 0c-20.707525 0-20.707525-15.473769-20.707525-22.920028l0-82.2651c-0.698751-8.25251-1.855002-16.37252-3.296254-24.37503l-0.502501-2.798753 0.1075 0c-22.661278-117.851394-122.61265-206.899003-242.192796-206.899003-119.595146 0-219.565268 89.047609-242.207796 206.880253l0.1075 0-0.682501 3.788755c-1.328752 7.548759-2.442503 15.151268-3.130004 22.895028l0.04375 82.778851c0 7.441259 0 22.925028-20.673775 22.925028l-16.49877 0c-14.971268 0-27.173783-12.640015-27.173783-28.183784l0-75.873843c0-14.810018 11.040013-26.997533 25.020031-28.145034l0-0.0925 21.050026-0.04375c23.027528-129.887659 132.616412-228.657779 264.150322-228.657779 131.518911 0 241.084044 98.770121 264.121572 228.681529l18.955023 0.02c15.020018 0 27.216283 12.666265 27.187533 28.237534L822.242254 578.643206z" p-id="9777" fill="#399aff"></path><path d="M511.978125 334.404158c-67.495082 0-127.226405 33.198791-164.848951 84.282603-25.658781 35.097543-41.05505 78.427596-41.05505 125.503903 0 115.951392 92.358863 210.282757 205.904001 210.282757 72.925089 0 140.287671-39.790049 177.110216-102.983876l-111.621386 22.978778c-4.018755 9.092511-13.066266 15.038768-23.770029 18.965023-17.333771 6.660008-39.467548 7.763759-52.065064 7.763759-12.133765 0-32.65629-1.045001-49.48756-6.787508-19.868774-3.920005-34.863793-21.401276-34.863793-42.431302 0-23.880029 19.385024-43.271303 43.296303-43.271303l32.49004 0c4.726256-0.3125 7.95876-0.3325 8.52126-0.3325l0.3075 0 1.112501 0c2.305003 0 5.073756 0.1325 8.07126 0.3325l29.151286 0c14.350018 0 27.002533 7.080009 34.863793 17.832522l135.791416-27.943784c4.638756-17.617522 6.982509-35.883794 6.982509-54.402566 0-47.076307-15.386269-90.40636-41.05505-125.503903C639.20453 367.602949 579.473207 334.404158 511.978125 334.404158z" p-id="9778" fill="#399aff"></path><path d="M512.016875 999.03622" p-id="9779" fill="#399aff"></path></svg>