<?xml version="1.0" standalone="no"?><!DOCTYPE svg PUBLIC "-//W3C//DTD SVG 1.1//EN" "http://www.w3.org/Graphics/SVG/1.1/DTD/svg11.dtd"><svg t="1524464403720" class="icon" style="" viewBox="0 0 1030 1024" version="1.1" xmlns="http://www.w3.org/2000/svg" p-id="2451" xmlns:xlink="http://www.w3.org/1999/xlink" width="201.171875" height="200"><defs><style type="text/css"></style></defs><path d="M266.749453 651.095881c9.842627 21.106627 28.305194 38.020458 50.176 45.973015 21.870806 7.962746 46.89003 6.867423 67.986468-2.970109 21.096438-9.842627 38.010269-28.3001 45.96792-50.170905 7.962746-21.865711 6.872517-46.879841-2.970109-67.986468-9.842627-21.096438-28.3001-38.005174-50.170905-45.973015-21.870806-7.957652-46.884935-6.867423-67.981373 2.975204-21.096438 9.832438-38.015363 28.3001-45.978109 50.165811C255.826786 604.985313 256.917015 629.999443 266.749453 651.095881L266.749453 651.095881zM266.749453 651.095881" p-id="2452" fill="#DEDFE0"></path><path d="M613.844697 489.242746c9.842627 21.101532 28.305194 38.015363 50.181095 45.96792 21.870806 7.962746 46.89003 6.867423 67.981373-2.970109 21.096438-9.837532 38.010269-28.295005 45.962826-50.165811 7.97803-21.8759 6.882706-46.884935-2.95992-67.991562-9.837532-21.096438-28.28991-38.010269-50.181095-45.96792-21.865711-7.962746-46.879841-6.867423-67.976279 2.970109-21.091343 9.837532-38.010269 28.295005-45.96792 50.165811C602.927124 443.132179 604.012259 468.151403 613.844697 489.242746L613.844697 489.242746zM613.844697 489.242746" p-id="2453" fill="#DEDFE0"></path><path d="M531.899224 885.76c23.322746-42.773652 59.310488-78.639124 106.689592-100.728995s98.013612-26.695323 145.739144-16.98006c19.965453 4.187701 39.513154-8.78806 43.614249-28.763701 4.131662-20.082627-8.757493-39.599761-28.768796-43.76199-62.326448-12.935005-129.671005-6.847045-191.97198 22.196856-62.285692 29.0439-110.235383 76.728677-140.44593 132.809234-9.674507 18.00406-3.01596 40.425075 14.967721 50.196378C499.727284 910.402229 522.199244 903.713114 531.899224 885.76L531.899224 885.76zM531.899224 885.76" p-id="2454" fill="#DEDFE0"></path><path d="M313.272677 87.376239C74.400478 198.773174-28.957294 482.716657 82.439642 721.59395c111.386746 238.882388 395.345512 342.235065 634.217711 230.843224 238.882388-111.391841 342.224876-395.345512 230.838129-634.217711C836.098547 79.33198 552.155065-24.015602 313.272677 87.376239zM710.192398 938.58006c-188.701294 87.992677-412.99805 6.352876-500.995821-182.348418S202.843701 343.228498 391.5399 255.235821c188.706388-87.987582 413.008239-6.347781 501.000915 182.348418C980.538587 626.290627 898.893692 850.592478 710.192398 938.58006z" p-id="2455" fill="#DEDFE0"></path></svg>