<?xml version="1.0" standalone="no"?><!DOCTYPE svg PUBLIC "-//W3C//DTD SVG 1.1//EN" "http://www.w3.org/Graphics/SVG/1.1/DTD/svg11.dtd"><svg t="1528280273921" class="icon" style="" viewBox="0 0 1024 1024" version="1.1" xmlns="http://www.w3.org/2000/svg" p-id="8444" xmlns:xlink="http://www.w3.org/1999/xlink" width="200" height="200"><defs><style type="text/css"></style></defs><path d="M516.426808 807.930831c5.168874 0 10.440102-0.307062 15.71133-0.870008 50.716378-5.885352 93.807387-40.173922 109.672247-87.410266a7.164776 7.164776 0 0 0-4.04298-8.853616 7.676546 7.676546 0 0 0-9.570094 2.968265c-0.204708 0.255885-20.368434 31.729722-98.771553 41.965115-11.770703 1.535309-23.183168 2.354141-34.032685 2.354141-54.964066 0-79.477835-20.061372-79.682543-20.26608a7.727723 7.727723 0 0 0-9.825978-0.102354 7.164776 7.164776 0 0 0-1.535309 9.416562 133.827778 133.827778 0 0 0 112.077565 60.798241z m421.851767-470.009296c-0.716478 0-1.330601 0.153531-1.995902 0.153531-45.956919-192.425409-221.596282-335.925633-432.189515-335.925633-216.376231 0-396.109751 151.483832-435.925433 351.790494C29.477935 360.695287 0 393.602079 0 433.366585v159.262732c0 44.626318 37.00095 80.808436 82.753161 80.808436 25.793193 0 48.515768-11.770703 63.664151-29.836174 36.591534 93.551502 111.054026 168.935179 205.322005 208.750862a42.988655 42.988655 0 0 1 4.196512-6.499475c1.484132-1.842371 3.121795-3.37768 4.55475-3.37768a7.164776 7.164776 0 0 1 3.991804 1.279424c-21.801389-15.660153-100.613924-96.366235-117.707032-209.006747-7.471838-49.590484 30.962067-98.259783 75.690739-106.294567 71.801289-12.896597 143.24434-27.635564 215.04563-40.327453 45.649858-8.034784 76.867809-32.241491 95.956819-72.568944 4.452396-9.416563 10.900695-28.454396 13.868959-55.936428a8.802439 8.802439 0 0 1 8.700085-7.215953c2.968264 0 5.475936 1.432955 7.164776 3.582388l1.944725-1.228247c28.300865 39.764506 84.442001 127.686541 92.527962 220.470388 9.211855 106.038683 4.094158 178.607627-79.887251 252.916587a6.499475 6.499475 0 0 0-2.200609 4.861813c0 2.302964 1.228247 4.247689 3.070618 5.424758l2.047079 0.921186c0.614124 0.153531 1.125893 0.307062 1.68884 0.307062 0.614124 0 1.074716-0.153531 1.586486-0.307062l3.480034-1.893548c84.953771-45.240442 150.050877-120.77765 180.142936-211.565595 12.231296 17.502524 31.269129 30.092059 53.428757 34.493278-35.516817 156.243291-179.73352 254.093658-358.341147 268.934979a73.183068 73.183068 0 0 0-68.06537-43.909841c-40.37863 0-73.183068 30.91089-73.183068 69.08891 0 38.126843 32.804438 69.037733 73.183068 69.037733 32.650907 0 59.928232-20.214903 69.395971-48.055175 206.75496-16.2231 372.568344-135.056025 407.163977-319.651357 30.552651-12.384827 52.046979-41.350992 52.046978-75.230146V419.548803c0-45.035734-38.024489-81.576091-84.95377-81.576091z m-76.253686 46.315158c-53.940527-141.248438-193.704833-242.118247-358.136439-242.118246-163.715128 0-302.967665 100.050977-357.419961 240.327053-2.661202-3.172972-5.885352-5.936529-8.95597-8.700085 30.808536-170.982258 183.008846-300.971763 366.580639-300.971763 182.701784 0 334.390324 128.71008 366.2224 298.515268-3.121795 4.094158-6.038883 8.341846-8.341846 12.947773z m-510.183218 468.115748c-0.153531 0.255885-0.153531 0.307062 0 0z" p-id="8445" fill="#edd4b7"></path></svg>