<?xml version="1.0" standalone="no"?><!DOCTYPE svg PUBLIC "-//W3C//DTD SVG 1.1//EN" "http://www.w3.org/Graphics/SVG/1.1/DTD/svg11.dtd"><svg t="1523589266164" class="icon" style="" viewBox="0 0 1024 1024" version="1.1" xmlns="http://www.w3.org/2000/svg" p-id="4571" xmlns:xlink="http://www.w3.org/1999/xlink" width="200" height="200"><defs><style type="text/css"></style></defs><path d="M957.152011 169.189354c0-35.162848-28.760021-63.814398-64.031339-63.814398l-500.744655 0c-35.272341 0-64.031339 28.65155-64.031339 63.814398l0 105.705484c0 1.735527-0.759293 3.146667-2.279926 3.90596l-176.736237 92.89983c-49.867758 26.155706-82.48155 77.488839-82.48155 133.813658l0 320.0472 133.867894 0c0 0.10847 0 0.10847 0 0.162706l1.194198 0c11.883655 53.123918 59.147098 92.89983 115.852588 92.89983s103.969956-39.775912 115.853611-92.89983l1.465374 0c0.054235-0.054235 0.054235-0.054235 0.054235-0.162706l150.311401 0c0 0.10847 0 0.10847 0 0.162706l5.426593 0c11.93789 53.123918 59.147098 92.89983 115.906823 92.89983 56.760748 0 104.078427-39.830147 115.907846-93.062536l134.465504 0L957.153034 169.189354zM317.761646 863.058494c-34.944883 0-63.380516-28.434609-63.380516-63.380516s28.434609-63.380516 63.380516-63.380516c34.945907 0 63.381539 28.434609 63.381539 63.380516S352.708576 863.058494 317.761646 863.058494zM706.77866 863.058494c-34.944883 0-63.379493-28.434609-63.379493-63.380516s28.433586-63.380516 63.379493-63.380516c34.945907 0 63.380516 28.434609 63.380516 63.380516S741.724567 863.058494 706.77866 863.058494zM901.585461 769.995959l-80.093153 0c-13.240559-51.225685-59.365062-89.264023-114.714671-89.264023-55.402821 0-101.58156 38.039361-114.821095 89.264023L432.530552 769.995959c-13.239536-51.225685-59.365062-89.264023-114.767883-89.264023-55.402821 0-101.527324 38.039361-114.76686 89.264023l-80.58127 0L122.414539 505.514285c0-35.108612 20.239973-67.503417 52.798507-84.650959l175.705767-92.356454c20.402679-10.148128 32.992415-30.713512 32.992415-53.613058L383.911228 169.189354c0-4.450359 3.90596-8.248871 8.464789-8.248871l500.744655 0c4.557806 0 8.464789 3.798513 8.464789 8.248871L901.585461 769.995959z" p-id="4572" fill="#666666"></path><path d="M372.460432 382.499577c-15.356756 0-27.782763 12.426007-27.782763 27.78174l0 138.91484L205.761805 549.196157c-15.356756 0-27.782763 12.42703-27.782763 27.782763s12.42703 27.782763 27.782763 27.782763l166.697603 0c15.356756 0 27.782763-12.42703 27.782763-27.782763L400.242172 410.282341C400.243195 394.925584 387.816165 382.499577 372.460432 382.499577z" p-id="4573" fill="#666666"></path></svg>