<?xml version="1.0" standalone="no"?><!DOCTYPE svg PUBLIC "-//W3C//DTD SVG 1.1//EN" "http://www.w3.org/Graphics/SVG/1.1/DTD/svg11.dtd"><svg t="1523588818134" class="icon" style="" viewBox="0 0 1024 1024" version="1.1" xmlns="http://www.w3.org/2000/svg" p-id="1796" xmlns:xlink="http://www.w3.org/1999/xlink" width="200" height="200"><defs><style type="text/css"></style></defs><path d="M853.376 1024H170.688C76.544 1024 0 944 0 845.632V178.368C0 80 76.544 0 170.688 0h682.688C947.456 0 1024 80 1024 178.368v667.264C1024 944 947.456 1024 853.376 1024zM170.688 48.704C103.488 48.704 48.768 106.88 48.768 178.304v667.264c0 71.488 54.656 129.6 121.92 129.6h682.688c67.2 0 121.856-58.112 121.856-129.6V178.368c0-71.488-54.656-129.6-121.856-129.6H170.688z" fill="#666666" p-id="1797"></path><path d="M780.16 560.768a48.832 48.832 0 0 1 0-97.536 48.768 48.768 0 0 1 0 97.536zM780.224 512h-0.128l0.064 24.32 0.064-24.32z" fill="#666666" p-id="1798"></path><path d="M999.616 666.368h-316.608a154.624 154.624 0 0 1-154.432-154.432 154.624 154.624 0 0 1 154.432-154.368h316.608a24.32 24.32 0 1 1 0 48.768h-316.608c-58.24 0-105.6 47.424-105.6 105.6 0 58.304 47.36 105.664 105.6 105.664h316.608a24.32 24.32 0 1 1 0 48.768z" fill="#666666" p-id="1799"></path></svg>