<?xml version="1.0" standalone="no"?><!DOCTYPE svg PUBLIC "-//W3C//DTD SVG 1.1//EN" "http://www.w3.org/Graphics/SVG/1.1/DTD/svg11.dtd"><svg t="1523589570609" class="icon" style="" viewBox="0 0 1024 1024" version="1.1" xmlns="http://www.w3.org/2000/svg" p-id="10967" xmlns:xlink="http://www.w3.org/1999/xlink" width="200" height="200"><defs><style type="text/css"></style></defs><path d="M510.864642 313.983087c-62.33879 0-112.889093 50.54928-112.889093 112.887047 0 62.340837 50.54928 112.89114 112.889093 112.89114 62.339814 0 112.890117-50.550303 112.890117-112.89114C623.755782 364.532367 573.204455 313.983087 510.864642 313.983087z" p-id="10968" fill="#fe7058"></path><path d="M511.999488 64.021106c-247.27171 0-447.724091 200.452381-447.724091 447.724091s200.452381 447.724091 447.724091 447.724091 447.724091-200.453405 447.724091-447.724091S759.271198 64.021106 511.999488 64.021106zM510.864642 798.860357c0 0-217.552851-168.727843-217.552851-379.73972 0-113.02724 97.376795-196.535165 217.552851-196.535165 120.175033 0 217.553874 83.507926 217.553874 196.535165C728.418516 630.132514 510.864642 798.860357 510.864642 798.860357z" p-id="10969" fill="#fe7058"></path></svg>