<?xml version="1.0" standalone="no"?><!DOCTYPE svg PUBLIC "-//W3C//DTD SVG 1.1//EN" "http://www.w3.org/Graphics/SVG/1.1/DTD/svg11.dtd"><svg t="1523522958341" class="icon" style="" viewBox="0 0 1024 1024" version="1.1" xmlns="http://www.w3.org/2000/svg" p-id="17615" xmlns:xlink="http://www.w3.org/1999/xlink" width="200" height="200"><defs><style type="text/css"></style></defs><path d="M106.7008 341.2992c11.776 0 21.2992-9.5232 21.2992-21.2992L128 199.7824c0-39.6288 32.1536-71.7824 71.7824-71.7824l120.2176 0c11.776 0 21.2992-9.5232 21.2992-21.2992s-9.5232-21.2992-21.2992-21.2992L199.7824 85.4016c-63.0784 0-114.4832 51.3024-114.4832 114.4832l0 120.2176C85.2992 331.776 94.9248 341.2992 106.7008 341.2992z" p-id="17616" fill="#666666"></path><path d="M824.2176 85.2992 704 85.2992c-11.776 0-21.2992 9.5232-21.2992 21.2992S692.224 128 704 128l120.2176 0c39.6288 0 71.7824 32.1536 71.7824 71.7824l0 120.2176c0 11.776 9.5232 21.2992 21.2992 21.2992 11.776 0 21.2992-9.5232 21.2992-21.2992L938.5984 199.7824C938.7008 136.704 887.296 85.2992 824.2176 85.2992z" p-id="17617" fill="#666666"></path><path d="M917.2992 682.7008c-11.776 0-21.2992 9.5232-21.2992 21.2992l0 120.2176c0 39.6288-32.1536 71.7824-71.7824 71.7824L704 896c-11.776 0-21.2992 9.5232-21.2992 21.2992s9.5232 21.2992 21.2992 21.2992l120.2176 0c63.0784 0 114.3808-51.3024 114.3808-114.4832L938.5984 704C938.7008 692.224 929.0752 682.7008 917.2992 682.7008z" p-id="17618" fill="#666666"></path><path d="M320 896 199.7824 896c-39.6288 0-71.7824-32.1536-71.7824-71.7824L128 704c0-11.776-9.5232-21.2992-21.2992-21.2992-11.776 0-21.2992 9.5232-21.2992 21.2992l0 120.2176c0 63.0784 51.3024 114.4832 114.4832 114.4832l120.2176 0c11.776 0 21.2992-9.5232 21.2992-21.2992S331.776 896 320 896z" p-id="17619" fill="#666666"></path><path d="M917.2992 512 106.7008 512c-11.776 0-21.2992 9.5232-21.2992 21.2992s9.5232 21.2992 21.2992 21.2992l810.7008 0c11.776 0 21.2992-9.5232 21.2992-21.2992S929.0752 512 917.2992 512z" p-id="17620" fill="#787878"></path></svg>