<?xml version="1.0" standalone="no"?><!DOCTYPE svg PUBLIC "-//W3C//DTD SVG 1.1//EN" "http://www.w3.org/Graphics/SVG/1.1/DTD/svg11.dtd"><svg t="1523589113383" class="icon" style="" viewBox="0 0 1024 1024" version="1.1" xmlns="http://www.w3.org/2000/svg" p-id="3235" xmlns:xlink="http://www.w3.org/1999/xlink" width="200" height="200"><defs><style type="text/css"></style></defs><path d="M946.652889 193.364963 830.013379 76.728522c-0.401136-0.401136-0.823761-0.779759-1.26583-1.133823-8.506744-6.80294-19.040658-10.550287-29.66053-10.550287-11.252275 0-21.595854 4.151553-29.120224 11.683087L283.428699 563.266617c-1.644453 1.64343-2.89391 3.640923-3.653203 5.837962l-81.907475 236.884129c-1.919722 5.552459-0.50142 11.714809 3.653203 15.869433 2.926656 2.926656 6.850012 4.496407 10.855232 4.496407 1.679245 0 3.373841-0.276293 5.0142-0.842181l236.885152-81.906451c2.197038-0.760317 4.193509-2.009773 5.837962-3.653203l486.539118-486.539118c0.404206-0.403183 0.783853-0.828878 1.139963-1.274016C962.383152 233.871515 961.892989 208.604038 946.652889 193.364963zM315.989279 574.119803l394.033261-394.033261 133.271306 133.269259-394.034285 394.034285L315.989279 574.119803zM300.772716 602.319052l120.28862 120.287597-183.861518 63.572898L300.772716 602.319052zM924.243507 232.407164l-59.243289 59.243289L731.728912 158.38017l59.950394-59.950394c1.729387-1.731434 4.361331-2.686179 7.40669-2.686179 3.451612 0 6.945179 1.197268 9.912767 3.385097l115.946732 115.944686C928.782893 218.909755 928.419619 226.706325 924.243507 232.407164z" p-id="3236" fill="#666666"></path><path d="M839.182202 904.034744c0 12.272511-9.984399 22.25691-22.255887 22.25691L117.448434 926.291654c-12.272511 0-22.25691-9.984399-22.25691-22.25691L95.191524 206.206432c0-12.272511 9.984399-22.25691 22.25691-22.25691l415.343613 0 0-30.699186L117.448434 153.250336c-29.200042 0-52.956096 23.756053-52.956096 52.956096l0 697.828312c0 29.200042 23.756053 52.956096 52.956096 52.956096l699.477882 0c29.199019 0 52.955072-23.756053 52.955072-52.956096L869.881388 490.339678l-30.699186 0L839.182202 904.034744z" p-id="3237" fill="#666666"></path></svg>