<?xml version="1.0" standalone="no"?><!DOCTYPE svg PUBLIC "-//W3C//DTD SVG 1.1//EN" "http://www.w3.org/Graphics/SVG/1.1/DTD/svg11.dtd"><svg t="1523589780763" class="icon" style="" viewBox="0 0 1024 1024" version="1.1" xmlns="http://www.w3.org/2000/svg" p-id="16261" xmlns:xlink="http://www.w3.org/1999/xlink" width="200" height="200"><defs><style type="text/css"></style></defs><path d="M511.999488 64.021106c-247.27171 0-447.724091 200.452381-447.724091 447.724091s200.452381 447.724091 447.724091 447.724091 447.724091-200.453405 447.724091-447.724091S759.271198 64.021106 511.999488 64.021106zM306.655703 336.175529c0-16.020882 12.986779-29.007661 29.007661-29.007661l83.556021 0 0 52.188616-112.563682 0L306.655703 336.175529zM323.028603 716.490348l-83.556021 0c-16.020882 0-29.007661-12.986779-29.007661-29.007661L210.464921 578.344011c21.476127 0 38.885636-17.410532 38.885636-38.885636 0-21.476127-17.409508-38.885636-38.885636-38.885636l0-81.509409c0-16.020882 12.986779-29.007661 29.007661-29.007661l83.556021 0L323.028603 716.490348zM717.343273 472.943472c0 23.195282-25.582655 15.006785-25.582655 40.249703 0 24.899086 25.582655 15.006785 25.582655 39.907918s-25.582655 12.95915-25.582655 37.179784c0 24.557302 25.582655 15.687284 25.582655 37.178761 0 25.240871-25.582655 15.004739-25.582655 38.543851 0 22.851451 21.147646 14.926968 21.147646 36.157501 0 6.853082-3.586688 12.192693-5.275143 14.329357L363.960851 716.490348l0-326.434677L710.280414 390.05567c1.593288 1.26276 7.061836 5.958712 7.061836 10.914584 0 17.396205-25.582655 18.760273-25.582655 37.179784S717.343273 449.748191 717.343273 472.943472zM813.534056 390.05567c0 23.195282-25.582655 15.006785-25.582655 40.249703 0 24.899086 25.582655 15.006785 25.582655 39.907918s-25.582655 12.95915-25.582655 37.179784c0 24.557302 25.582655 15.687284 25.582655 37.178761 0 25.240871-25.582655 15.004739-25.582655 38.543851 0 22.851451 21.147646 14.926968 21.147646 36.157501 0 6.853082-3.586688 12.192693-5.275143 14.329357l-62.885236 0c1.225921-21.328771 25.523303-12.237719 25.523303-36.842093 0-21.491477-25.582655-12.621459-25.582655-37.178761 0-24.220634 25.582655-12.278651 25.582655-37.179784s-25.582655-15.008832-25.582655-39.907918c0-25.242917 25.582655-17.055444 25.582655-40.249703s-25.582655-16.372899-25.582655-34.792411 25.582655-19.783579 25.582655-37.179784c0-4.955872-5.469572-9.651824-7.061836-10.914584L460.151633 359.357508l0-52.188616L806.471197 307.168891c1.593288 1.26276 7.061836 5.958712 7.061836 10.914584 0 17.396205-25.582655 18.760273-25.582655 37.179784S813.534056 366.860389 813.534056 390.05567z" p-id="16262" fill="#ff9231"></path><path d="M583.709717 470.227618l-15.485693-12.137435c-2.5071-1.966795-6.134721-1.527796-8.101515 0.980327l-45.632293 56.985876-45.633317-56.985876c-1.966795-2.508123-5.594415-2.947122-8.101515-0.980327l-15.485693 12.137435c-2.506077 1.964748-2.946099 5.593392-0.980327 8.101515l44.030819 54.987359-38.057781 0c-3.203972 0-5.801123 2.597151-5.801123 5.801123l0 19.779486c0 3.203972 2.597151 5.801123 5.801123 5.801123l46.557362 0 0 16.371876-46.557362 0c-3.203972 0-5.801123 2.597151-5.801123 5.801123l0 19.779486c0 3.203972 2.597151 5.801123 5.801123 5.801123l46.557362 0 0 29.982872c0 3.691065 2.992147 6.685259 6.684236 6.685259l22.790052 0c3.691065 0 6.684236-2.993171 6.684236-6.684236L532.978289 612.45183l41.780569 0c3.203972 0 5.801123-2.597151 5.801123-5.801123l0-19.779486c0-3.203972-2.597151-5.801123-5.801123-5.801123l-41.780569 0 0-16.371876 41.780569 0c3.203972 0 5.801123-2.597151 5.801123-5.801123l0-19.779486c0-3.203972-2.597151-5.801123-5.801123-5.801123l-34.099632 0 44.030819-54.987359C586.656839 475.821009 586.215794 472.192366 583.709717 470.227618z" p-id="16263" fill="#ff9231"></path></svg>