<?xml version="1.0" standalone="no"?><!DOCTYPE svg PUBLIC "-//W3C//DTD SVG 1.1//EN" "http://www.w3.org/Graphics/SVG/1.1/DTD/svg11.dtd"><svg t="1517821511722" class="icon" style="" viewBox="0 0 1396 1024" version="1.1" xmlns="http://www.w3.org/2000/svg" p-id="10300" xmlns:xlink="http://www.w3.org/1999/xlink" width="272.65625" height="200"><defs><style type="text/css"></style></defs><path d="M694.551273 1012.922182c-44.218182 0-83.781818-27.927273-102.4-67.490909s-6.981818-88.436364 23.272727-118.690909c34.909091-34.909091 88.436364-41.890909 132.654545-18.618182s62.836364 74.472727 51.2 123.345454c-11.636364 46.545455-55.854545 81.454545-104.727272 81.454546z m0-195.490909c-23.272727 0-44.218182 9.309091-60.509091 25.6-27.927273 27.927273-32.581818 72.145455-11.636364 107.054545s65.163636 46.545455 102.4 30.254546 60.509091-55.854545 53.527273-95.418182c-9.309091-39.563636-44.218182-67.490909-83.781818-67.490909zM1000.075636 708.608c-4.654545 0-9.309091-2.327273-11.636363-4.654545-160.581818-160.581818-421.236364-160.581818-581.818182 0-6.981818 4.654545-16.290909 4.654545-20.945455 0-6.981818-6.981818-6.981818-16.290909 0-20.945455 174.545455-172.218182 453.818182-172.218182 628.363637 0 4.654545 4.654545 6.981818 11.636364 4.654545 18.618182-4.654545 4.654545-11.636364 6.981818-18.618182 6.981818z" fill="#DEDFE0" p-id="10301"></path><path d="M195.467636 516.026182c-2.327273-6.981818 0-13.963636 4.654546-18.618182 76.8-76.8 167.563636-132.654545 265.309091-165.236364 244.363636-86.109091 528.290909-30.254545 726.109091 165.236364 4.654545 6.981818 4.654545 13.963636-2.327273 20.945455s-13.963636 6.981818-20.945455 2.327272c-260.654545-260.654545-684.218182-260.654545-944.872727 0-2.327273 2.327273-6.981818 4.654545-11.636364 4.654546-6.981818 0-11.636364-4.654545-16.290909-9.309091z" fill="#DEDFE0" p-id="10302"></path><path d="M1371.345455 330.472727c-4.654545 0-9.309091-2.327273-11.636364-4.654545C992-41.890909 396.218182-41.890909 28.509091 325.818182c-6.981818 6.981818-16.290909 6.981818-23.272727 0-6.981818-6.981818-6.981818-16.290909 0-23.272727C189.090909 118.690909 435.781818 16.290909 694.109091 16.290909S1201.454545 118.690909 1382.981818 302.545455c4.654545 4.654545 6.981818 11.636364 4.654546 18.618181-2.327273 4.654545-9.309091 9.309091-16.290909 9.309091z" fill="#DEDFE0" p-id="10303"></path><path d="M808.145455 646.981818c-32.581818-81.454545-13.963636-172.218182 46.545454-235.054545 69.818182-69.818182 174.545455-83.781818 260.654546-34.909091s125.672727 148.945455 100.072727 242.036363c-25.6 93.090909-111.709091 160.581818-207.127273 160.581819-88.436364 0-167.563636-53.527273-200.145454-132.654546z" fill="#FFFFFF" p-id="10304"></path><path d="M1005.963636 826.181818c-107.054545 0-200.145455-62.836364-242.036363-160.581818-39.563636-97.745455-18.618182-209.454545 55.854545-286.254545 86.109091-83.781818 216.436364-100.072727 318.836364-41.89091 102.4 58.181818 153.6 179.2 121.018182 295.563637-30.254545 114.036364-134.981818 193.163636-253.672728 193.163636z m2.327273-477.090909c-55.854545 0-111.709091 20.945455-153.6 62.836364-62.836364 62.836364-79.127273 153.6-46.545454 235.054545s111.709091 132.654545 197.818181 132.654546c97.745455 0 183.854545-65.163636 207.127273-160.581819 25.6-93.090909-16.290909-193.163636-100.072727-242.036363-32.581818-18.618182-69.818182-27.927273-104.727273-27.927273z" fill="#FFFFFF" p-id="10305"></path><path d="M1005.963636 791.272727c-93.090909 0-174.545455-55.854545-209.454545-139.636363-34.909091-86.109091-13.963636-181.527273 51.2-246.690909 72.145455-72.145455 186.181818-88.436364 274.618182-37.236364 88.436364 51.2 132.654545 155.927273 104.727272 256-27.927273 97.745455-116.363636 167.563636-221.090909 167.563636z m2.327273-430.545454c-53.527273 0-107.054545 20.945455-144.290909 60.509091-58.181818 58.181818-74.472727 146.618182-44.218182 221.090909 30.254545 76.8 104.727273 125.672727 186.181818 125.672727 93.090909 0 172.218182-62.836364 195.490909-151.272727s-16.290909-183.854545-95.418181-228.072728c-27.927273-18.618182-62.836364-27.927273-97.745455-27.927272z" fill="#DEDFE0" p-id="10306"></path><path d="M1008.290909 442.181818h4.654546c6.981818 0 11.636364 4.654545 11.636363 11.636364l-6.981818 165.236363c0 4.654545-4.654545 6.981818-9.309091 6.981819s-9.309091-4.654545-9.309091-6.981819l-2.327273-165.236363c-2.327273-6.981818 4.654545-11.636364 11.636364-11.636364-2.327273 0-2.327273 0 0 0z m0 209.454546c4.654545 0 9.309091 2.327273 13.963636 4.654545 4.654545 2.327273 4.654545 6.981818 4.654546 13.963636 0 4.654545-2.327273 9.309091-4.654546 13.963637-4.654545 2.327273-6.981818 4.654545-13.963636 4.654545-4.654545 0-9.309091-2.327273-13.963636-4.654545-4.654545-4.654545-4.654545-6.981818-4.654546-11.636364s2.327273-9.309091 4.654546-13.963636c4.654545-4.654545 9.309091-6.981818 13.963636-6.981818z" fill="#DEDFE0" p-id="10307"></path></svg>