<?xml version="1.0" standalone="no"?><!DOCTYPE svg PUBLIC "-//W3C//DTD SVG 1.1//EN" "http://www.w3.org/Graphics/SVG/1.1/DTD/svg11.dtd"><svg t="1523589876285" class="icon" style="" viewBox="0 0 1024 1024" version="1.1" xmlns="http://www.w3.org/2000/svg" p-id="19330" xmlns:xlink="http://www.w3.org/1999/xlink" width="200" height="200"><defs><style type="text/css"></style></defs><path d="M512 2.32C230.499 2.32 2.294 230.523 2.294 512.025c0 281.503 228.204 509.653 509.706 509.653 281.501 0 509.704-228.15 509.704-509.653C1021.704 230.523 793.501 2.32 512 2.32zM352.527 761.974c0 0 0.161 14.32-18.137 14.32l-87.717 0c0 0-21.638 0-21.638-21.639L204.14 415.027c0 0 0.318-20.628 21.266-20.628l101.347 0c0 0 25.774-0.319 25.774 25.772L352.527 761.974zM756.961 713.396c0 0-19.517 62.898-43.433 62.898L459.125 776.294c-17.713 0-62.897-11.986-62.897-45.186L396.228 394.292c0 0 125.848-93.073 125.848-211.816 3.555-6.205-6.205-43.435 40.783-43.435 0 0 110.786 12.41 45.186 255.251l169.282 0c0 0 42.533-3.553 42.533 40.783C819.859 435.075 819.859 498.873 756.961 713.396z" p-id="19331" fill="#ff3144"></path></svg>