<?xml version="1.0" standalone="no"?><!DOCTYPE svg PUBLIC "-//W3C//DTD SVG 1.1//EN" "http://www.w3.org/Graphics/SVG/1.1/DTD/svg11.dtd"><svg t="1523523046234" class="icon" style="" viewBox="0 0 1024 1024" version="1.1" xmlns="http://www.w3.org/2000/svg" p-id="18711" xmlns:xlink="http://www.w3.org/1999/xlink" width="200" height="200"><defs><style type="text/css"></style></defs><path d="M639.232 414.848H380.288a32.384 32.384 0 0 1 0-64.704h258.944a32.384 32.384 0 1 1 0 64.704z m-61.376 129.536H380.288a32.448 32.448 0 0 1 0-64.832h197.568a32.384 32.384 0 0 1 0 64.832z m387.456-97.152C965.312 233.024 761.984 58.688 512 58.688S58.752 233.024 58.752 447.232c0 117.888 63.808 228.672 174.976 304.192 14.784 10.112 34.88 6.208 44.992-8.64s6.208-34.944-8.576-44.992c-93.248-63.168-146.688-154.496-146.688-250.56 0-178.56 174.336-323.776 388.544-323.776 214.208 0 388.544 145.28 388.544 323.776S726.208 771.008 512 771.008c-1.984 0-3.712 0.768-5.632 1.152a32.128 32.128 0 0 0-36.224 20.416c-6.208 17.6-46.848 47.168-95.232 74.688 17.6-58.944 9.216-71.552 3.52-79.936a36.288 36.288 0 0 0-30.272-16.128 32.448 32.448 0 0 0-28.096 48.576c-3.264 18.368-17.408 61.568-33.472 100.992a32.384 32.384 0 0 0 43.2 41.856c36.928-16.512 149.376-70.016 189.824-127.104 246.528-3.648 445.696-176.256 445.696-388.288z m0 0" p-id="18712" fill="#787878"></path></svg>