<?xml version="1.0" standalone="no"?><!DOCTYPE svg PUBLIC "-//W3C//DTD SVG 1.1//EN" "http://www.w3.org/Graphics/SVG/1.1/DTD/svg11.dtd"><svg t="1523589360963" class="icon" style="" viewBox="0 0 1024 1024" version="1.1" xmlns="http://www.w3.org/2000/svg" p-id="6233" xmlns:xlink="http://www.w3.org/1999/xlink" width="200" height="200"><defs><style type="text/css"></style></defs><path d="M510.255775 97.647971c-225.969545 0-409.105538 183.196369-409.105538 409.157727 0 225.982848 183.135994 409.190473 409.105538 409.190473 226.001267 0 409.17717-183.206602 409.17717-409.190473C919.432944 280.84434 736.257042 97.647971 510.255775 97.647971zM579.562257 280.453437l86.504166 0c28.986171 0 52.571333 23.586185 52.571333 52.570309l0 91.578742c0 11.613502-9.41544 21.028942-21.027919 21.028942-11.613502 0-21.027919-9.41544-21.027919-21.028942l0-91.578742c0-5.802146-4.713348-10.512425-10.515494-10.512425l-86.504166 0c-11.613502 0-21.028942-9.41544-21.028942-21.027919C558.533314 289.868877 567.949778 280.453437 579.562257 280.453437zM292.376489 333.539492c0-28.988218 23.584138-52.571333 52.570309-52.571333l86.504166 0c11.613502 0 21.029966 9.414417 21.029966 21.027919s-9.416464 21.028942-21.029966 21.028942l-86.504166 0c-5.801123 0-10.514471 4.713348-10.514471 10.514471l0 91.575672c0 11.613502-9.41544 21.028942-21.027919 21.028942-11.613502 0-21.027919-9.41544-21.027919-21.028942L292.376489 333.539492zM438.381817 738.004337 351.877651 738.004337c-28.987195 0-52.571333-23.583115-52.571333-52.569286l0-91.587951c0-11.613502 9.414417-21.028942 21.026896-21.028942 11.614525 0 21.029966 9.41544 21.029966 21.028942l0 91.587951c0 5.8001 4.713348 10.513448 10.514471 10.513448l86.504166 0c11.614525 0 21.028942 9.41544 21.028942 21.027919C459.41076 728.588897 449.996342 738.004337 438.381817 738.004337zM318.22111 527.844873c-11.622712 0-21.028942-9.405207-21.028942-21.027919 0-11.602246 9.405207-21.027919 21.028942-21.027919l384.184963 0c11.602246 0 21.028942 9.425673 21.028942 21.027919 0 11.622712-9.426697 21.027919-21.028942 21.027919L318.22111 527.844873zM725.568608 685.434028c0 28.986171-23.585161 52.569286-52.569286 52.569286l-86.505189 0c-11.613502 0-21.028942-9.414417-21.028942-21.027919 0-11.612479 9.41544-21.027919 21.028942-21.027919l86.505189 0c5.8001 0 10.513448-4.713348 10.513448-10.513448l0-91.587951c0-11.613502 9.41544-21.028942 21.026896-21.028942 11.614525 0 21.028942 9.41544 21.028942 21.028942L725.568608 685.434028z" p-id="6234" fill="#667aff"></path></svg>